# xmcd CD database file
#
# Track frame offsets:
#	150
#	22610
#	40287
#	64962
#	85245
#	110177
#	132957
#	137027
#	153300
#	172907
#	192380
#	212670
#	239607
#	261462
#
# Disc length: 3548 seconds
#
# Revision: 2
# Processed by: cddbd v1.5.2PL0 Copyright (c) Steve Scherf et al.
# Submitted via: CDex 1.70beta2
#
DISCID=c90dda0e
DTITLE=Tower of Power - T.O.P.
DYEAR=1993
DGENRE=Funk
TTITLE0=Soul With A Capital "S"
TTITLE1=It All Comes Back
TTITLE2=Please Come Back (To Stay)
TTITLE3=The Real Deal
TTITLE4=Come To A Decision
TTITLE5=Cruise Control
TTITLE6=The Educated Bump Part I
TTITLE7=Mama Lied
TTITLE8=Quiet Scream
TTITLE9=I Like Your Style
TTITLE10=You
TTITLE11=South Of The Boulevard
TTITLE12=Come On With It
TTITLE13=The Educated Bump Part II
EXTD=YEAR: 1993
EXTT0=
EXTT1=
EXTT2=
EXTT3=
EXTT4=
EXTT5=
EXTT6=
EXTT7=
EXTT8=
EXTT9=
EXTT10=
EXTT11=
EXTT12=
EXTT13=
PLAYORDER=
